<?xml version="1.0" encoding="iso-8859-1"?>
<!-- Generator: Adobe Illustrator 19.0.0, SVG Export Plug-In . SVG Version: 6.00 Build 0)  -->
<svg version="1.1" id="Layer_1" xmlns="http://www.w3.org/2000/svg" xmlns:xlink="http://www.w3.org/1999/xlink" x="0px" y="0px"
	 viewBox="0 0 512 512" style="enable-background:new 0 0 512 512;" xml:space="preserve">
<g>
	<rect x="318.838" y="357.645" style="fill:#B3B3B3;" width="105.715" height="41.144"/>
	<rect x="348.201" y="175.426" style="fill:#B3B3B3;" width="46.988" height="29.935"/>
</g>
<g>
	<polygon style="fill:#00A99D;" points="326.229,10.199 326.229,138.089 348.201,175.426 395.185,175.426 417.157,138.089 
		417.157,10.199 	"/>
	<rect x="196.855" y="64.908" style="fill:#00A99D;" width="129.367" height="73.189"/>
</g>
<g>
	<rect x="196.855" y="138.087" style="fill:#F7931E;" width="62.837" height="336.36"/>
	<polygon style="fill:#F7931E;" points="122.936,474.449 196.86,474.449 196.86,138.089 122.936,222.364 	"/>
</g>
<rect x="87.448" y="474.447" style="fill:#00A99D;" width="207.727" height="27.352"/>
<path d="M424.549,347.448h-8.282v-30.83c0-21.07-14.698-38.758-34.375-43.383V215.56h13.293c5.632,0,10.199-4.567,10.199-10.199
	v-27.156l20.563-34.941c0.923-1.569,1.41-3.355,1.41-5.173V10.199C427.356,4.567,422.789,0,417.157,0H326.23
	c-5.632,0-10.199,4.567-10.199,10.199v44.505H196.86c-5.632,0-10.199,4.567-10.199,10.199v69.346l-71.392,81.389
	c-1.633,1.86-2.531,4.251-2.531,6.726v241.884H87.452c-5.632,0-10.199,4.567-10.199,10.199v27.352
	c0,5.632,4.567,10.199,10.199,10.199h207.729c5.632,0,10.199-4.567,10.199-10.199v-27.352c0-5.632-4.567-10.199-10.199-10.199
	h-25.285v-315.96h50.501l17.605,29.916v27.156c0,5.632,4.567,10.199,10.199,10.199h13.292v57.674
	c-19.676,4.626-34.374,22.315-34.374,43.383v30.83h-8.282c-5.632,0-10.199,4.567-10.199,10.199v41.141
	c0,5.632,4.567,10.199,10.199,10.199h105.712c5.632,0,10.199-4.567,10.199-10.199v-41.142
	C434.749,352.015,430.181,347.448,424.549,347.448z M207.06,127.891V75.103h108.971v52.788
	C316.031,127.891,207.06,127.891,207.06,127.891z M133.135,226.204l53.525-61.021v299.066h-53.525V226.204z M284.982,484.648v6.954
	H97.651v-6.954H284.982z M249.498,464.249H207.06v-315.96h42.438V464.249z M336.428,20.398h70.529v114.913l-17.604,29.915h-35.32
	l-17.605-29.915V20.398z M358.401,185.626h26.584v9.537h-26.584V185.626z M347.517,316.619c0-13.33,10.846-24.176,24.176-24.176
	c13.33,0,24.175,10.846,24.175,24.176v30.83h-48.351V316.619z M414.35,367.846v20.743h-85.313v-20.743H414.35z"/>
<path d="M152.989,315.155c-5.632,0-10.199,4.567-10.199,10.199v120.351c0,5.632,4.567,10.199,10.199,10.199
	s10.199-4.567,10.199-10.199V325.355C163.188,319.723,158.621,315.155,152.989,315.155z"/>
<path d="M152.989,276.398c-5.632,0-10.199,4.567-10.199,10.199v7.139c0,5.632,4.567,10.199,10.199,10.199
	s10.199-4.567,10.199-10.199v-7.139C163.188,280.966,158.621,276.398,152.989,276.398z"/>
<g>
</g>
<g>
</g>
<g>
</g>
<g>
</g>
<g>
</g>
<g>
</g>
<g>
</g>
<g>
</g>
<g>
</g>
<g>
</g>
<g>
</g>
<g>
</g>
<g>
</g>
<g>
</g>
<g>
</g>
</svg>
