<?xml version="1.0" encoding="iso-8859-1"?>
<!-- Generator: Adobe Illustrator 19.0.0, SVG Export Plug-In . SVG Version: 6.00 Build 0)  -->
<svg version="1.1" id="Layer_1" xmlns="http://www.w3.org/2000/svg" xmlns:xlink="http://www.w3.org/1999/xlink" x="0px" y="0px"
	 viewBox="0 0 512 512" style="enable-background:new 0 0 512 512;" xml:space="preserve">
<rect x="51.343" y="465.349" style="fill:#B3B3B3;" width="261.375" height="36.455"/>
<polygon style="fill:#00A99D;" points="283.829,465.346 265.257,426.827 265.257,362.859 98.802,362.859 98.802,426.827 
	80.231,465.346 "/>
<rect x="85.867" y="399.309" style="fill:#B3B3B3;" width="192.337" height="26.825"/>
<path style="fill:#F7931E;" d="M182.029,190.214L182.029,190.214c45.966,0,83.228,37.262,83.228,83.228v89.417H98.802v-89.417
	C98.802,227.476,136.064,190.214,182.029,190.214z"/>
<path style="fill:#00A99D;" d="M136.268,256.487V55.96c0-25.274,20.488-45.761,45.761-45.761l0,0
	c25.274,0,45.761,20.488,45.761,45.761v200.527c0,25.274-20.488,45.761-45.761,45.761l0,0
	C156.757,302.247,136.268,281.76,136.268,256.487z"/>
<g>
	<circle style="fill:#B3B3B3;" cx="182.025" cy="255.929" r="17.379"/>
	<circle style="fill:#B3B3B3;" cx="182.025" cy="58.146" r="17.379"/>
</g>
<circle style="fill:#F7931E;" cx="413.466" cy="59.237" r="31.822"/>
<rect x="366.651" y="241.721" style="fill:#00A99D;" width="32.022" height="31.618"/>
<rect x="428.244" y="241.721" style="fill:#F7931E;" width="32.41" height="31.618"/>
<path style="fill:#B3B3B3;" d="M460.658,196.887c0-25.96-21.045-47.005-47.005-47.005l0,0c-25.96,0-47.005,21.045-47.005,47.005
	v44.834h32.022v-32.93h29.578v32.93h32.41V196.887z"/>
<path d="M182.029,283.491c7.062,0,14.125-2.688,19.501-8.065c10.752-10.753,10.752-28.249,0-39.002
	c-10.753-10.752-28.249-10.752-39.002,0c-10.752,10.753-10.752,28.249,0,39.002C167.904,280.802,174.967,283.491,182.029,283.491z
	 M176.953,250.848c1.399-1.4,3.238-2.1,5.077-2.1s3.677,0.7,5.077,2.1c2.8,2.8,2.8,7.354,0,10.153c-2.799,2.8-7.355,2.8-10.153,0
	C174.152,258.203,174.152,253.648,176.953,250.848z"/>
<path d="M182.029,85.707c7.062,0,14.125-2.689,19.501-8.065c10.752-10.753,10.752-28.249,0-39.002
	c-10.753-10.752-28.249-10.752-39.002,0c-10.752,10.753-10.752,28.249,0,39.002C167.904,83.018,174.967,85.707,182.029,85.707z
	 M176.953,53.065c1.399-1.4,3.238-2.1,5.077-2.1s3.677,0.7,5.077,2.1c2.8,2.8,2.8,7.354,0,10.153c-2.799,2.8-7.355,2.8-10.153,0
	C174.153,60.419,174.153,55.864,176.953,53.065z"/>
<path d="M166.6,137.837c-5.633,0-10.199,4.566-10.199,10.199v58.645c0,5.633,4.566,10.199,10.199,10.199s10.199-4.566,10.199-10.199
	v-58.645C176.799,142.403,172.233,137.837,166.6,137.837z"/>
<path d="M176.799,111.217c0-5.633-4.566-10.199-10.199-10.199s-10.199,4.566-10.199,10.199v6.818
	c0,5.633,4.566,10.199,10.199,10.199s10.199-4.566,10.199-10.199V111.217z"/>
<path d="M356.449,273.339c0,5.633,4.566,10.199,10.199,10.199h32.022c5.633,0,10.199-4.566,10.199-10.199V218.99h9.179v54.348
	c0,5.633,4.566,10.199,10.199,10.199h32.41c5.633,0,10.199-4.566,10.199-10.199v-76.451c0-28.125-20.408-51.557-47.189-56.309
	v-40.58c18.258-4.57,31.824-21.11,31.824-40.764c0-23.171-18.851-42.022-42.023-42.022c-19.509,0-35.952,13.364-40.664,31.418
	H237.495C233.891,21.228,210.4,0,182.029,0c-30.857,0-55.96,25.103-55.96,55.96v142.675c-23.539,17.622-37.466,45.247-37.466,74.806
	v115.674h-2.741c-5.633,0-10.199,4.566-10.199,10.199v26.825c0,4.668,3.139,8.594,7.419,9.806l-9.258,19.201H51.342
	c-5.633,0-10.199,4.566-10.199,10.199v36.456c0,5.633,4.566,10.199,10.199,10.199h261.376c5.633,0,10.199-4.566,10.199-10.199
	v-36.455c0-5.633-4.566-10.199-10.199-10.199h-22.483l-9.258-19.201c4.28-1.212,7.419-5.137,7.419-9.806v-26.825
	c0-5.633-4.566-10.199-10.199-10.199h-2.74V273.442c0-29.484-13.945-57.193-37.467-74.811V69.029h134.622
	c3.639,15.182,15.533,27.185,30.659,30.971v40.646c-26.601,4.9-46.822,28.247-46.822,56.244L356.449,273.339L356.449,273.339z
	 M146.468,55.96c0-19.609,15.954-35.562,35.562-35.562s35.562,15.953,35.562,35.562v200.527c0,19.609-15.954,35.562-35.562,35.562
	s-35.562-15.954-35.562-35.562V55.96z M267.996,409.513v6.427H96.062v-6.427H267.996z M302.518,475.545v16.057H61.541v-16.057
	H302.518z M96.471,455.147l9.068-18.807H258.52l9.068,18.807H96.471z M109.002,389.115v-16.057h146.057v16.057H109.002z
	 M255.058,273.442v79.218H109.002v-79.218c0-17.392,6.168-33.93,17.067-46.923v29.968c0,30.857,25.103,55.96,55.96,55.96
	s55.96-25.103,55.96-55.96v-29.951C248.882,239.542,255.058,256.099,255.058,273.442z M391.846,59.235
	c0-11.923,9.7-21.623,21.623-21.623c11.923,0,21.624,9.7,21.624,21.623s-9.7,21.624-21.624,21.624
	C401.546,80.859,391.846,71.159,391.846,59.235z M388.471,263.139h-11.624V251.92h11.624V263.139z M398.671,198.592
	c-5.633,0-10.199,4.566-10.199,10.199v22.731h-11.624v-34.634c0-20.294,16.512-36.806,36.806-36.806
	c20.294,0,36.806,16.511,36.806,36.806v34.634h-12.012v-22.731c0-5.633-4.566-10.199-10.199-10.199H398.671z M450.459,263.139
	h-12.012V251.92h12.012V263.139z"/>
<g>
</g>
<g>
</g>
<g>
</g>
<g>
</g>
<g>
</g>
<g>
</g>
<g>
</g>
<g>
</g>
<g>
</g>
<g>
</g>
<g>
</g>
<g>
</g>
<g>
</g>
<g>
</g>
<g>
</g>
</svg>
